<svg xmlns="http://www.w3.org/2000/svg" xml:space="preserve" data-id="lg_CjTryHMYKuejAUyyqx" data-version="1" viewBox="0 0 2000 560"><g data-padding="20"><g transform="translate(10 13.333)scale(.95238)"><path fill="#398378" d="M1039.995 560.036c-115.817 0-209.7-93.883-209.7-209.7v-139.8c0-115.817 93.883-209.7 209.7-209.7s209.7 93.883 209.7 209.7v139.8c0 115.817-93.883 209.7-209.7 209.7"/><path fill="none" stroke="#31c48d" stroke-width="2.5" d="M153.48 71.074c-16.57 0-30-13.431-30-30v-20c0-16.57 13.43-30 30-30s30 13.43 30 30v20c0 16.569-13.431 30-30 30" paint-order="stroke" transform="matrix(6.18 0 0 6.34 91.5 84.28)"/><path fill="#31c48d" stroke="#31c48d" stroke-width="2.08" d="M1042.765-.036v19.364m-2.94 519.986v19.364m190.035-287.162h18.39m-418.945-4.72h16.66"/><path fill="#333" d="m1122.252 378.374-2.358-16.27a23.58 23.58 0 0 0-4.009-40.086q-.55-7.467-.865-15.012l.55-.393a23.58 23.58 0 0 0 9.668-15.249 23.58 23.58 0 0 0-10.846-24.051l.235-13.362 2.437-1.494a23.58 23.58 0 0 0 .236-38.435l1.493-14.541c7.86-3.93 13.126-12.026 13.126-21.144a23.3 23.3 0 0 0-7.545-17.213l2.2-11.79a23.58 23.58 0 0 0 6.21-41.58 65.24 65.24 0 0 0-18.235-42.915 70.74 70.74 0 0 0-51.012-20.043q-26.252.079-52.19 21.85a23.58 23.58 0 0 0-29.318 32.62l-5.816 8.567a23.816 23.816 0 0 0-26.095 23.423 23.36 23.36 0 0 0 5.895 15.563q-1.572 4.166-2.909 8.489a23.58 23.58 0 0 0-18.706 23.108c0 7.546 3.537 14.384 9.353 18.785q-1.022 7.467-1.73 15.327l-2.436 1.494a23.58 23.58 0 0 0 .786 39.064l.236 14.462-1.022.708a23.58 23.58 0 0 0 3.852 40.715l1.729 15.248a23.58 23.58 0 0 0 6.13 41.5l2.201 12.027-1.572 1.493a23.58 23.58 0 0 0 10.297 38.907c2.28 9.196 3.93 15.327 4.323 16.427v.079a23.58 23.58 0 0 0 16.742 36.628c15.877 25.073 37.256 37.256 65.08 37.256 39.93 0 74.985-29.71 81.43-69.168a62.9 62.9 0 0 0 0-19.178l3.144-2.673a23.58 23.58 0 0 0-10.69-39.143m-.628 28.218a7.86 7.86 0 0 1-3.066 1.886l-6.445 2.28 1.572 7.938q1.965 10.218.708 18.078a67.596 67.596 0 0 1-66.024 56.042c-23.502 0-40.637-10.611-53.841-33.248l-2.594-4.401-5.03.55a7.86 7.86 0 0 1-6.289-2.044c-3.144-2.987-3.222-8.017-.55-10.768l4.559-4.244-2.122-6.053-1.022-2.908c-.236-.629-2.2-7.86-5.188-20.279l-1.414-5.973-6.131-.079a7.781 7.781 0 0 1-3.223-14.855l5.502-2.594-1.179-5.974q-2.043-10.375-4.087-22.165l-1.022-6.288-6.366-.314a7.86 7.86 0 0 1-6.053-3.223 7.86 7.86 0 0 1-1.336-5.895q.629-3.144 3.223-5.109l1.886-.943 5.974-2.122-.786-6.288a613 613 0 0 1-2.83-25.388l-.55-6.13-6.052-.944a7.86 7.86 0 0 1-5.188-3.223 7.86 7.86 0 0 1 1.965-10.925q.786-.629 2.28-1.022l5.895-1.729-.236-6.13a613 613 0 0 1-.472-23.974v-5.738l-5.423-1.807a7.86 7.86 0 0 1 .629-15.013l5.502-1.336.471-5.66q1.1-12.811 2.83-24.365l.943-6.21-5.895-2.28a7.86 7.86 0 0 1-5.03-7.309c0-4.323 3.537-7.86 7.388-7.86l7.31.55 1.808-6.052q2.75-9.432 6.052-17.45l2.515-6.13-5.58-3.537a7.86 7.86 0 0 1-3.695-6.602c0-5.424 5.974-9.275 10.926-7.232l6.209 2.594 3.537-5.738a202 202 0 0 1 11.476-16.741l3.851-5.345-4.48-4.795a7.86 7.86 0 0 1-2.201-5.345 7.86 7.86 0 0 1 7.86-7.86c2.122 0 3.694.865 4.637 1.572l5.188 3.93 4.795-4.401q23.422-21.38 45.823-21.458c15.878 0 30.026 5.423 39.772 15.406a49.52 49.52 0 0 1 13.755 36.47l-.079 5.423 5.03 2.044a7.86 7.86 0 0 1 4.953 7.231 7.86 7.86 0 0 1-7.546 7.782l-6.13.235-1.258 6.053q-2.28 11.004-4.088 22.243l-.943 5.502 4.952 2.673a7.86 7.86 0 0 1-2.122 14.54l-5.502 1.101-.708 5.58a676 676 0 0 0-2.593 24.996l-.55 5.973 5.58 2.044q2.28.864 3.694 2.83 1.808 2.672 1.336 5.894a7.86 7.86 0 0 1-5.973 6.367l-5.817 1.336-.235 5.974a621 621 0 0 0-.472 24.13v5.895l5.66 1.65c1.257.394 2.907 1.18 4.165 2.909q1.808 2.672 1.336 5.895-.629 3.144-3.222 5.109a7.9 7.9 0 0 1-2.044.943l-5.58 1.886.235 5.895q.472 12.97 1.572 25.86l.472 6.052 5.895 1.179q3.144.629 5.03 3.223 1.808 2.672 1.336 5.895-.628 3.144-3.222 5.109l-1.65.864-5.66 2.28.786 6.052q1.886 14.934 4.009 27.824l1.65 6.524h6.681q3.144 0 5.424 2.2a7.86 7.86 0 0 1 2.436 5.503q-.157 3.065-2.28 5.502"/><path fill="#333" d="M1051.276 123.396a7.86 7.86 0 0 0 7.86-7.86c0-10.297-8.41-18.707-18.628-18.707s-18.707 8.41-18.707 18.707c0 4.323 3.537 7.86 7.86 7.86s7.86-3.537 7.86-7.86c0-1.65 1.336-2.987 2.987-2.987s2.908 1.336 2.908 2.987a7.86 7.86 0 0 0 7.86 7.86m19.729 23.58a18.864 18.864 0 0 0-18.629 18.707c0 4.323 3.537 7.86 7.86 7.86s7.86-3.537 7.86-7.86a2.987 2.987 0 0 1 5.974 0c0 4.323 3.537 7.86 7.86 7.86s7.86-3.537 7.86-7.86a18.864 18.864 0 0 0-18.786-18.707m-71.289 152.013c0 4.323 3.536 7.86 7.86 7.86s7.86-3.537 7.86-7.86a18.785 18.785 0 0 0-37.414 0c0 4.323 3.537 7.86 7.86 7.86s7.86-3.537 7.86-7.86a2.987 2.987 0 1 1 5.973 0m65.395 123.087a18.864 18.864 0 0 0-18.628 18.707 7.86 7.86 0 1 0 15.72 0 2.987 2.987 0 0 1 5.974 0c0 4.323 3.537 7.86 7.86 7.86s7.86-3.537 7.86-7.86a18.864 18.864 0 0 0-18.786-18.707m-12.811-165.06a7.86 7.86 0 0 0 7.86-7.86 2.987 2.987 0 0 1 5.973 0c0 4.323 3.537 7.86 7.86 7.86s7.86-3.537 7.86-7.86a18.707 18.707 0 1 0-37.335 0c-.078 4.323 3.459 7.86 7.782 7.86m-36.864 114.992a18.864 18.864 0 0 0-18.707 18.707c0 4.323 3.537 7.86 7.86 7.86s7.86-3.537 7.86-7.86c0-1.651 1.337-2.987 2.987-2.987s2.987 1.257 2.987 2.908c0 4.323 3.537 7.86 7.86 7.86s7.86-3.537 7.86-7.86a18.864 18.864 0 0 0-18.707-18.628m.55-185.732a18.864 18.864 0 0 0-18.706 18.707c0 4.323 3.537 7.86 7.86 7.86s7.86-3.537 7.86-7.86a2.987 2.987 0 1 1 5.973 0c0 4.323 3.537 7.86 7.86 7.86s7.86-3.537 7.86-7.86a18.864 18.864 0 0 0-18.707-18.707m49.125 122.773a18.864 18.864 0 0 0-18.628 18.707 7.86 7.86 0 1 0 15.72 0 2.987 2.987 0 0 1 5.974 0c0 4.323 3.537 7.86 7.86 7.86s7.86-3.537 7.86-7.86a18.864 18.864 0 0 0-18.786-18.707"/><rect width="172.09" height="101.7" x="553.46" y="-170.844" fill="none" rx="0" ry="0" transform="translate(400.5 339.26)"/><path fill="#31c48d" d="M981.495 194.316h-24.52v2.28h7.03v48.17h-7.03v2.28h24.26q11.86 0 19.51-7.38 7.56-7.3 7.56-18.99 0-15.11-11.08-22.14-6.76-4.22-15.73-4.22m-9.93 2.28h9.67q13.89 0 17.31 12.66 1.32 4.66 1.32 11.07 0 21.89-14.94 24.17-1.67.27-3.43.27h-9.93Zm72.76-3.17q-10.54 0-18.1 6.94-8.26 7.65-8.26 19.95 0 14.24 9.75 21.98 7.12 5.62 16.35 5.62 10.37 0 17.84-7.03 8.35-7.82 8.35-20.22 0-14.5-10.11-22.06-6.85-5.18-15.82-5.18m0 52.03q-12.74 0-16.34-13.62-1.23-4.84-1.23-11.17 0-20.91 12.65-24.25 2.2-.53 4.66-.53 17.31.17 17.4 24.43 0 19.16-10.63 23.82-2.99 1.32-6.51 1.32m43.7 1.59h24.17q0-1.93-1.41-2.2-.44-.08-.88-.08h-5.98v-48.17h5.1q7.12 0 9.49 8.62 0 .35.09.52l1.41 5.89h2.46l-.44-17.31h-43.42l-.44 17.31h2.46l1.41-5.89q2.81-8.61 9.58-9.14h4.75v48.17h-8.35Z"/><rect width="277.207" height="101.7" x="500.901" y="-170.844" fill="none" rx="0" ry="0" transform="translate(400.5 440.96)"/><path fill="#31c48d" d="M928.935 296.006h-24.52v2.28h7.03v48.17h-7.03v2.28h24.26q11.87 0 19.51-7.38 7.56-7.3 7.56-18.99 0-15.11-11.07-22.14-6.77-4.22-15.74-4.22m-9.93 2.28h9.67q13.89 0 17.31 12.66 1.32 4.66 1.32 11.07 0 21.89-14.94 24.17-1.67.27-3.43.27h-9.93Zm76.47 50.45h18.98q0-1.93-1.41-2.2-.43-.08-.87-.08h-2.99l-20.13-50.45h-3.25l-19.69 50.45h-5.54v2.28h15.65q0-1.93-1.41-2.2-.44-.08-.88-.08h-4.3l6.59-17.05h18.37l6.59 17.05h-5.71Zm-10.11-43.15 8.26 21.27h-16.43Zm87.45 19.42h-21.88v2.29h7.91v13.71q-4.4 5.27-11.78 5.89-.7.08-1.41.08-17.49-.17-17.58-24.61 0-20.91 12.66-24.25 2.2-.53 4.66-.53 9.05 0 13.09 5.01 2.64 3.43 4.75 10.72h2.29l-.44-17.05-7.65 1.58q-5.54-2.72-11.78-2.72-10.54 0-18.1 6.94-8.26 7.65-8.26 19.95 0 14.07 10.01 21.98 7.3 5.62 16.35 5.62 6.59 0 11.96-2.9.7-.35 1.14-.7l7.47 2.72v-21.44h6.59Zm45.35-13.18h1.76l-.44-15.82h-40.52v2.28h7.03v48.17h-7.03v2.28h40.52l.44-15.82h-1.76l-1.23 4.13q-2.2 7.47-6.5 8.97-1.32.44-2.81.44h-14.07v-23.65h18.11v-2.55h-18.11v-21.97h14.07q6.32 0 9.05 8.53.17.52.26.88Zm9.67 36.91h21.53v-2.28h-6.94v-21.89h8.35l14.06 24.17h13.27q0-1.93-1.05-2.2-.44-.08-1.06-.08h-3.34l-14.15-22.68q8.35-2.02 11.43-8.7 1.14-2.64 1.14-5.36 0-6.59-5.71-10.55-4.66-3.16-11.51-3.16h-26.02v2.28h7.03v48.17h-7.03Zm14.59-50.45h8.79q7.56 0 10.46 6.15 1.14 2.55 1.14 5.37 0 6.32-4.39 9.84-2.99 2.37-6.95 2.37h-9.05Z"/></g><path fill="transparent" stroke="transparent" d="M790 0h420v560H790z"/></g></svg>